# xmcd CD database file generated by OrangeCD 6.0
#
# Track frame offsets:
#	150
#	22012
#	34125
#	58132
#	71478
#	89047
#	111039
#	125688
#	135996
#	148220
#	170919
#	189871
#	200240
#	218675
#	228382
#	257834
#	278862
#
# Disc length: 4113 seconds
#
# Revision: 1
# Processed by: cddbd v1.5.2PL0 Copyright (c) Steve Scherf et al.
# Submitted via: OrangeCD 6.0
#
DISCID=0e100f11
DTITLE=Jonas Fjeld and Chatham County Line - Amerikabesøk
DYEAR=2007
DGENRE=Country
TTITLE0=Mister and Mississippi
TTITLE1=Nowhere To Sleep
TTITLE2=Hun kom som en engel
TTITLE3=Lonesome In Caroline
TTITLE4=Den svarte elva
TTITLE5=When Morning Comes To America
TTITLE6=Single Engines
TTITLE7=Gunfight In Durango
TTITLE8=Bacon In The Skillet
TTITLE9=Konnerud
TTITLE10=Sigve
TTITLE11=Sun Up
TTITLE12=One More Shot
TTITLE13=Born To Be With You
TTITLE14=Engler i sneen
TTITLE15=Last Thing On My Mind
TTITLE16=Whippoorwill
EXTD=
EXTT0=
EXTT1=
EXTT2=
EXTT3=
EXTT4=
EXTT5=
EXTT6=
EXTT7=
EXTT8=
EXTT9=
EXTT10=
EXTT11=
EXTT12=
EXTT13=
EXTT14=
EXTT15=
EXTT16=
PLAYORDER=
